<?xml version="1.0" standalone="no"?><!DOCTYPE svg PUBLIC "-//W3C//DTD SVG 1.1//EN" "http://www.w3.org/Graphics/SVG/1.1/DTD/svg11.dtd"><svg t="1702560100194" class="icon" viewBox="0 0 1024 1024" version="1.1" xmlns="http://www.w3.org/2000/svg" p-id="20792" xmlns:xlink="http://www.w3.org/1999/xlink" width="200" height="200"><path d="M972.48 300.8a365.76 365.76 0 0 0-192-217.6C608 12.16 464.96 17.6 352 83.2 181.76 192 139.2 420.48 133.76 469.44c-96 97.92-122.88 163.2-85.44 206.72 5.12 5.44 10.56 16.64 122.88 54.72V960a25.28 25.28 0 0 0 26.56 27.2h245.76a25.6 25.6 0 0 0 26.88-27.2v-44.16h325.76v48.96a26.88 26.88 0 1 0 53.44 0v-163.2l69.44-103.36c74.88-158.08 90.88-282.24 53.44-397.44z" fill="#2C7DFA" p-id="20793"></path><path d="M499.84 334.08l130.56 355.84H576l-32-91.52h-146.56l-32 91.52H310.72l130.24-355.84z m27.52 220.48l-56-160h-1.92l-56.32 160z m188.48-220.48v355.84h-51.2V334.08z" fill="#FFFFFF" p-id="20794"></path></svg>